HIERARCHY
ROOT Hips
{
	OFFSET 0.00000 0.00000 0.00000
	CHANNELS 6 Xposition Yposition Zposition Zrotation Yrotation Xrotation 
	JOINT LHipJoint
	{
		OFFSET 0 0 0
		CHANNELS 3 Zrotation Yrotation Xrotation
		JOINT LeftHip
		{
			OFFSET 1.34019 -1.87553 0.90315
			CHANNELS 3 Zrotation Yrotation Xrotation
			JOINT LeftKnee
			{
				OFFSET 2.55316 -7.01474 0.00000
				CHANNELS 3 Zrotation Yrotation Xrotation
				JOINT LeftAnkle
				{
					OFFSET 2.64657 -7.27139 0.00000
					CHANNELS 3 Zrotation Yrotation Xrotation
					JOINT LeftToe
					{
						OFFSET 0.24207 -0.66507 2.14489
						CHANNELS 3 Zrotation Yrotation Xrotation
						End Site
						{
							OFFSET 0.00000 -0.00000 1.12451
						}
					}
				}
			}
		}
	}
	JOINT RHipJoint
	{
		OFFSET 0 0 0
		CHANNELS 3 Zrotation Yrotation Xrotation
		JOINT RightHip
		{
			OFFSET -1.28320 -1.87553 0.90315
			CHANNELS 3 Zrotation Yrotation Xrotation
			JOINT RightKnee
			{
				OFFSET -2.60484 -7.15674 0.00000
				CHANNELS 3 Zrotation Yrotation Xrotation
				JOINT RightAnkle
				{
					OFFSET -2.60296 -7.15159 0.00000
					CHANNELS 3 Zrotation Yrotation Xrotation
					JOINT RightToe
					{
						OFFSET -0.31082 -0.85398 2.28998
						CHANNELS 3 Zrotation Yrotation Xrotation
						End Site
						{
							OFFSET -0.00000 -0.00000 1.21611
						}
					}
				}
			}
		}
	}
	JOINT lowerback
	{
		OFFSET 0 0 0
		CHANNELS 3 Zrotation Yrotation Xrotation
		JOINT Chest
		{
			OFFSET -0.00160 2.05581 -0.15156
			CHANNELS 3 Zrotation Yrotation Xrotation
			JOINT Chest2
			{
				OFFSET 0.04594 2.06326 -0.01617
				CHANNELS 3 Zrotation Yrotation Xrotation
				JOINT lowerneck
				{
					OFFSET 0 0 0
					CHANNELS 3 Zrotation Yrotation Xrotation
					JOINT Neck
					{
						OFFSET 0.03753 1.73883 0.26751
						CHANNELS 3 Zrotation Yrotation Xrotation
						JOINT Head
						{
							OFFSET -0.09795 1.76129 -0.31794
							CHANNELS 3 Zrotation Yrotation Xrotation
							End Site
							{
								OFFSET -0.03611 1.79987 -0.13846
							}
						}
					}
				}
				JOINT LeftCollar
				{
					OFFSET 0 0 0
					CHANNELS 3 Zrotation Yrotation Xrotation
					JOINT LeftShoulder
					{
						OFFSET 3.30667 1.29205 -0.22445
CHANNELS 3 Zrotation Xrotation Yrotation
						JOINT LeftElbow
						{
OFFSET 0 -4.927850 -0.000000
CHANNELS 3 Zrotation Xrotation Yrotation
							JOINT LeftWrist
							{
OFFSET 0 -3.440520 0.000000
CHANNELS 3 Zrotation Xrotation Yrotation
								JOINT lhand
								{
									OFFSET 0 0 0
CHANNELS 3 Zrotation Xrotation Yrotation
									JOINT LFingers
									{
OFFSET 0 -0.654330 0.000000
CHANNELS 3 Zrotation Xrotation Yrotation
										End Site
										{
OFFSET 0 -0.527530 0.000000
										}
									}
								}
								JOINT LThumb
								{
OFFSET 0 0.000000 0.000000
CHANNELS 3 Zrotation Xrotation Yrotation
									End Site
									{
OFFSET 0 -0.535590 0.535590
									}
								}
							}
						}
					}
				}
				JOINT RightCollar
				{
					OFFSET 0 0 0
					CHANNELS 3 Zrotation Yrotation Xrotation
					JOINT RightShoulder
					{
						OFFSET -3.20032 1.49783 -0.27688
CHANNELS 3 Zrotation Xrotation Yrotation
						JOINT RightElbow
						{
OFFSET 0 -5.091810 -0.000000
CHANNELS 3 Zrotation Xrotation Yrotation
							JOINT RightWrist
							{
OFFSET 0 -3.498650 -0.000000
CHANNELS 3 Zrotation Xrotation Yrotation
								JOINT rhand
								{
									OFFSET 0 0 0
CHANNELS 3 Zrotation Xrotation Yrotation
									JOINT RFingers
									{
OFFSET 0 -0.666410 0.000000
CHANNELS 3 Zrotation Xrotation Yrotation
										End Site
										{
OFFSET 0 -0.537280 0.000000
										}
									}
								}
								JOINT RThumb
								{
OFFSET 0 0.000000 0.000000
CHANNELS 3 Zrotation Xrotation Yrotation
									End Site
									{
OFFSET 0 -0.545480 0.545480
									}
								}
							}
						}
					}
				}
			}
		}
	}
}
MOTION
Frames: 7
Frame Time: 0.008333333333333333
0.726362 18.062382 -4.687555 -5.414098 6.340989 1.367342 0.000000 0.000000 0.000000 -7.516692 -5.487381 -24.380508 6.639836 15.020557 47.497864 -0.039678 10.909077 -14.925321 0.665667 -5.217664 -14.530385 0.000000 0.000000 0.000000 29.227944 -2.601464 -2.763707 -1.750488 -8.325623 23.707679 -0.530264 -5.450123 -16.825611 -0.155229 2.538796 -6.997340 3.299543 -2.001875 4.776274 4.876007 -2.325227 -0.394208 3.362111 -1.171453 -3.016812 7.469131 3.514000 -16.087321 -8.535919 5.179717 23.863973 -3.612386 2.048441 10.757057 0.000000 0.000000 0.000000 18.708192 -11.059412 -28.571626 30.366986 -41.205833 11.650634 14.029928 -5.893952 4.254585 0.000000 0.000000 0.000000 -7.125000 0.000000 0.000000 -9.488224 25.582032 -4.519770 0.000000 0.000000 0.000000 -25.048479 8.810193 10.778973 -31.818399 -42.401850 -12.618229 -10.720915 -4.841826 -5.453743 0.000000 0.000000 0.000000 7.125000 0.000000 0.000000 11.853923 24.431418 6.013576
0.741243 18.059091 -4.548862 -5.579629 6.331004 1.297830 0.000000 0.000000 0.000000 -7.511322 -5.912180 -25.089101 6.274892 14.688317 46.072893 -0.088671 11.534461 -15.101273 0.658244 -5.189264 -14.449244 0.000000 0.000000 0.000000 29.383964 -2.928358 -1.948691 -1.659490 -8.117081 23.070519 -0.518135 -5.464107 -16.692027 -0.171258 2.665460 -7.348834 3.766045 -1.426761 4.719514 4.709964 -1.539505 -0.374874 2.867576 -0.787712 -3.006969 7.116710 3.191273 -16.107717 -8.213173 4.737284 23.900634 -3.497800 1.852956 10.713853 0.000000 0.000000 0.000000 19.324977 -10.601419 -26.405418 30.560682 -41.369036 11.778459 14.175412 -5.931380 4.193076 0.000000 0.000000 0.000000 -7.125000 0.000000 0.000000 -9.383412 25.642208 -4.455237 0.000000 0.000000 0.000000 -25.354416 8.167735 12.016391 -32.105778 -42.631178 -12.812465 -10.705551 -4.762003 -5.565126 0.000000 0.000000 0.000000 7.125000 0.000000 0.000000 11.856074 24.320819 6.045792
0.756996 18.056061 -4.408848 -5.748375 6.312215 1.237557 0.000000 0.000000 0.000000 -7.509807 -6.334705 -25.740773 5.896291 14.325168 44.560439 -0.139090 12.100073 -15.201829 0.654924 -5.176373 -14.412268 0.000000 0.000000 0.000000 29.545722 -3.222653 -1.110860 -1.565911 -7.895775 22.398335 -0.501064 -5.530466 -16.537597 -0.189148 2.800352 -7.723465 4.234398 -0.851552 4.662793 4.547049 -0.754802 -0.356414 2.376713 -0.404756 -2.980616 6.723713 2.864418 -16.167997 -7.857894 4.290342 23.945661 -3.364770 1.654571 10.682944 0.000000 0.000000 0.000000 19.923257 -10.159615 -24.264673 30.763985 -41.539179 11.913085 14.311396 -6.036343 4.146215 0.000000 0.000000 0.000000 -7.125000 0.000000 0.000000 -9.284658 25.687685 -4.397187 0.000000 0.000000 0.000000 -25.641198 7.494961 13.185982 -32.380430 -42.848177 -12.998851 -10.697183 -4.673350 -5.670908 0.000000 0.000000 0.000000 7.125000 0.000000 0.000000 11.853707 24.215568 6.074023
0.773425 18.052817 -4.267354 -5.918005 6.287428 1.183656 0.000000 0.000000 0.000000 -7.512251 -6.746369 -26.338464 5.509543 13.933391 42.975717 -0.187693 12.582330 -15.224778 0.656035 -5.180679 -14.424542 0.000000 0.000000 0.000000 29.712157 -3.486696 -0.245746 -1.470226 -7.661439 21.690861 -0.479104 -5.649492 -16.362755 -0.208903 2.942030 -8.117455 4.694670 -0.281544 4.603985 4.388653 0.021078 -0.336728 1.898018 -0.025992 -2.934562 6.362788 2.553281 -16.223120 -7.534241 3.864125 23.956690 -3.244997 1.465161 10.645626 0.000000 0.000000 0.000000 20.502782 -9.719246 -22.138259 30.979306 -41.717958 12.056115 14.411523 -6.151156 4.111310 0.000000 0.000000 0.000000 -7.125000 0.000000 0.000000 -9.211884 25.721617 -4.354441 0.000000 0.000000 0.000000 -25.901207 6.754526 14.261239 -32.592284 -43.014199 -13.143101 -10.668973 -4.551466 -5.831719 0.000000 0.000000 0.000000 7.125000 0.000000 0.000000 11.861620 24.056012 6.123031
0.790442 18.048934 -4.124081 -6.096085 6.257905 1.135993 0.000000 0.000000 0.000000 -7.507924 -7.141394 -26.886680 5.119284 13.514710 41.331171 -0.230938 12.964182 -15.183357 0.663144 -5.208133 -14.503057 0.000000 0.000000 0.000000 29.891908 -3.722828 0.644593 -1.373132 -7.414972 20.951092 -0.453008 -5.816539 -16.172670 -0.228897 3.079069 -8.499103 5.153705 0.283320 4.551367 4.235305 0.789957 -0.325755 1.428604 0.349236 -2.884606 6.024069 2.246156 -16.265194 -7.231879 3.443963 23.957379 -3.135637 1.278373 10.606726 0.000000 0.000000 0.000000 21.073056 -9.234960 -20.062904 31.227910 -41.922727 12.221898 14.506768 -6.292702 4.114631 0.000000 0.000000 0.000000 -7.125000 0.000000 0.000000 -9.140219 25.716652 -4.320783 0.000000 0.000000 0.000000 -26.124479 5.957794 15.246926 -32.731243 -43.122407 -13.237989 -10.655966 -4.431778 -6.060522 0.000000 0.000000 0.000000 7.125000 0.000000 0.000000 11.853164 23.828589 6.182199
0.807944 18.044247 -3.979046 -6.268930 6.237126 1.099566 0.000000 0.000000 0.000000 -7.509501 -7.534521 -27.389107 4.729223 13.070739 39.636369 -0.266713 13.238793 -15.085989 0.673651 -5.248315 -14.618095 0.000000 0.000000 0.000000 30.072968 -3.938679 1.550042 -1.275706 -7.157639 20.183465 -0.422905 -6.036268 -15.973715 -0.249044 3.211007 -8.866905 5.596137 0.836756 4.502414 4.081118 1.543024 -0.330233 0.971990 0.716675 -2.837219 5.707421 1.945011 -16.296977 -6.937447 3.031035 23.986971 -3.032470 1.096028 10.580664 0.000000 0.000000 0.000000 21.649846 -8.672714 -18.070594 31.528802 -42.168109 12.423367 14.600228 -6.463336 4.121483 0.000000 0.000000 0.000000 -7.125000 0.000000 0.000000 -9.069700 25.708143 -4.288483 0.000000 0.000000 0.000000 -26.302016 5.119821 16.167103 -32.812726 -43.185522 -13.293677 -10.666948 -4.359460 -6.291135 0.000000 0.000000 0.000000 7.125000 0.000000 0.000000 11.827345 23.598779 6.232272
0.825738 18.038910 -3.831994 -6.423324 6.234302 1.075849 0.000000 0.000000 0.000000 -7.531386 -7.932985 -27.846726 4.342351 12.602285 37.897842 -0.294165 13.403645 -14.929347 0.689559 -5.308803 -14.791481 0.000000 0.000000 0.000000 30.240937 -4.149611 2.465277 -1.178573 -6.890260 19.390676 -0.389389 -6.301596 -15.769365 -0.268703 3.334323 -9.210986 6.007047 1.378522 4.446755 3.921756 2.277624 -0.342341 0.532286 1.075531 -2.779999 5.390262 1.640994 -16.315461 -6.634780 2.613019 24.020250 -2.926955 0.912635 10.555914 0.000000 0.000000 0.000000 22.241142 -8.039837 -16.184620 31.876229 -42.448227 12.657269 14.713032 -6.676738 4.088197 0.000000 0.000000 0.000000 -7.125000 0.000000 0.000000 -8.987225 25.740226 -4.241798 0.000000 0.000000 0.000000 -26.432280 4.258162 17.038715 -32.880140 -43.237746 -13.339867 -10.687275 -4.366917 -6.462895 0.000000 0.000000 0.000000 7.125000 0.000000 0.000000 11.799656 23.427300 6.264690
